<?xml version="1.0" standalone="no"?>
<!DOCTYPE svg PUBLIC "-//W3C//DTD SVG 20010904//EN"
 "http://www.w3.org/TR/2001/REC-SVG-20010904/DTD/svg10.dtd">
<svg version="1.0" xmlns="http://www.w3.org/2000/svg"
 width="500.000000pt" height="500.000000pt" viewBox="0 0 500.000000 500.000000"
 preserveAspectRatio="xMidYMid meet">
<metadata>
Created by potrace 1.14, written by Peter Selinger 2001-2017
</metadata>
<g transform="translate(0.000000,500.000000) scale(0.100000,-0.100000)"
fill="#000000" stroke="none">
<path d="M0 2500 l0 -2500 2500 0 2500 0 0 2500 0 2500 -2500 0 -2500 0 0
-2500z m3758 1810 c18 -11 41 -34 52 -52 20 -33 20 -55 20 -1836 0 -1984 4
-1851 -62 -1892 -44 -26 -122 -27 -165 0 -23 14 -993 736 -1089 811 -7 6 -215
-144 -573 -411 l-562 -420 -53 0 c-59 0 -112 28 -133 70 -10 20 -13 408 -13
1838 0 1996 -5 1848 62 1891 l33 21 1225 0 c1205 0 1226 0 1258 -20z"/>
<path d="M1470 3730 l0 -310 1035 0 1035 0 -2 308 -3 307 -1032 3 -1033 2 0
-310z"/>
<path d="M1470 2034 c0 -865 3 -1084 13 -1078 6 5 217 162 468 350 251 188
470 349 487 358 36 19 94 21 124 5 12 -7 235 -171 495 -365 261 -195 476 -354
478 -354 3 0 5 488 5 1085 l0 1085 -1035 0 -1035 0 0 -1086z"/>
</g>
</svg>
