<?xml version="1.0" standalone="no"?>
<!DOCTYPE svg PUBLIC "-//W3C//DTD SVG 20010904//EN"
 "http://www.w3.org/TR/2001/REC-SVG-20010904/DTD/svg10.dtd">
<svg version="1.0" xmlns="http://www.w3.org/2000/svg"
 width="500.000000pt" height="500.000000pt" viewBox="0 0 500.000000 500.000000"
 preserveAspectRatio="xMidYMid meet">
<metadata>
Created by potrace 1.14, written by Peter Selinger 2001-2017
</metadata>
<g transform="translate(0.000000,500.000000) scale(0.100000,-0.100000)"
fill="#000000" stroke="none">
<path d="M1586 3922 c-24 -5 -52 -34 -62 -64 -4 -12 -7 -626 -7 -1364 0 -1293
0 -1342 19 -1372 10 -18 21 -32 24 -32 3 0 22 -4 42 -9 34 -8 43 -5 85 25 27
18 56 39 66 46 11 7 31 23 45 36 15 12 45 35 67 50 22 15 42 29 45 32 21 21
130 100 130 94 0 -4 6 -1 13 8 12 17 303 238 312 238 3 0 13 8 24 18 83 78
121 86 172 40 20 -18 48 -39 62 -47 14 -7 39 -26 57 -42 17 -16 33 -29 36 -29
13 0 412 -309 406 -315 -4 -4 -2 -5 4 -3 13 3 134 -81 134 -94 0 -4 5 -8 11
-8 6 0 25 -11 43 -25 36 -28 96 -36 119 -17 8 7 17 10 20 7 4 -3 5 -2 2 2 -3
3 2 15 12 25 15 17 16 126 16 1376 0 1322 0 1360 -19 1385 -10 15 -28 30 -39
33 -20 7 -1805 12 -1839 6z m1691 -440 l-2 -237 -765 0 c-421 0 -770 1 -776 3
-8 2 -11 74 -11 230 0 125 1 230 3 234 3 4 353 7 778 7 l774 -1 -1 -236z m-12
-451 c12 -1 15 -1631 4 -1631 -4 0 -14 7 -22 15 -8 8 -17 11 -21 8 -3 -3 -8 2
-12 11 -3 9 -11 16 -16 16 -6 0 -19 10 -29 22 -11 11 -19 18 -19 13 0 -4 -9 3
-21 16 -11 13 -17 17 -13 9 3 -8 -5 -4 -19 10 -35 35 -79 66 -89 62 -5 -1 -7
2 -4 7 6 9 -22 26 -37 22 -5 -1 -6 3 -3 8 6 10 -22 26 -39 22 -5 -2 -7 1 -3 4
7 7 -33 45 -47 45 -3 0 -20 13 -38 30 -18 16 -35 30 -39 30 -4 0 -22 14 -40
30 -18 16 -37 30 -43 30 -6 0 -17 9 -25 20 -8 11 -19 20 -26 20 -6 0 -19 9
-29 20 -10 11 -23 17 -29 13 -6 -3 -8 -3 -4 2 14 15 -57 57 -102 60 -15 1 -96
-40 -116 -59 -6 -6 -22 -18 -34 -26 -12 -8 -30 -22 -40 -30 -10 -8 -28 -22
-40 -30 -62 -43 -79 -58 -72 -64 4 -4 3 -7 -3 -5 -18 4 -45 -13 -38 -24 3 -5
2 -7 -4 -4 -5 3 -22 -5 -39 -18 -43 -36 -46 -38 -84 -65 -19 -13 -40 -29 -46
-35 -7 -5 -22 -18 -35 -27 -13 -9 -66 -49 -118 -87 -52 -39 -97 -71 -100 -71
-3 0 -6 366 -6 813 l0 812 30 5 c23 4 1464 5 1510 1z"/>
</g>
</svg>
